<?xml version="1.0" encoding="utf-8"?>
<!-- Uploaded to: SVG Repo, www.svgrepo.com, Generator: SVG Repo Mixer Tools -->
<svg width="800px" height="800px" viewBox="0 0 1024 1024" class="icon"  version="1.1" xmlns="http://www.w3.org/2000/svg"><path d="M241.371429 548.571429a358.4 285.257143 90 1 0 570.514285 0 358.4 285.257143 90 1 0-570.514285 0Z" fill="#F4B1B2" /><path d="M58.514286 526.628571c-14.628571 0-21.942857-14.628571-21.942857-29.257142 0-36.571429 14.628571-117.028571 65.828571-204.8 7.314286-14.628571 21.942857-14.628571 36.571429-7.314286s21.942857 29.257143 7.314285 36.571428c-43.885714 87.771429-58.514286 153.6-58.514285 182.857143 0 14.628571-14.628571 21.942857-29.257143 21.942857zM160.914286 285.257143c-7.314286 0-14.628571 0-14.628572-7.314286-14.628571-7.314286-14.628571-29.257143-7.314285-36.571428 51.2-65.828571 117.028571-117.028571 182.857142-153.6 14.628571-7.314286 29.257143 0 36.571429 14.628571 7.314286 14.628571 0 29.257143-14.628571 36.571429-58.514286 29.257143-109.714286 73.142857-160.914286 131.657142 0 7.314286-7.314286 14.628571-21.942857 14.628572zM424.228571 109.714286c-14.628571 0-21.942857-7.314286-29.257142-21.942857 0-14.628571 7.314286-29.257143 21.942857-36.571429 43.885714-14.628571 95.085714-14.628571 146.285714-14.628571 21.942857 7.314286 29.257143 21.942857 29.257143 36.571428s-14.628571 29.257143-29.257143 29.257143c-43.885714-7.314286-87.771429-7.314286-138.971429 7.314286 7.314286 0 7.314286 0 0 0zM775.314286 160.914286c-7.314286 0-7.314286 0-14.628572-7.314286-43.885714-29.257143-95.085714-43.885714-146.285714-58.514286-7.314286 7.314286-21.942857-7.314286-14.628571-21.942857 0-14.628571 14.628571-21.942857 29.257142-21.942857 58.514286 14.628571 109.714286 29.257143 160.914286 65.828571 14.628571 7.314286 14.628571 21.942857 7.314286 36.571429 0 7.314286-14.628571 7.314286-21.942857 7.314286zM994.742857 599.771429c-14.628571 0-29.257143-14.628571-29.257143-29.257143-7.314286-160.914286-58.514286-285.257143-146.285714-365.714286-14.628571-7.314286-14.628571-29.257143 0-36.571429 7.314286-14.628571 29.257143-14.628571 36.571429 0 95.085714 87.771429 153.6 226.742857 160.914285 402.285715 7.314286 14.628571-7.314286 29.257143-21.942857 29.257143z" fill="#D72822" /><path d="M826.514286 914.285714h-7.314286c-14.628571-7.314286-21.942857-21.942857-14.628571-36.571428 0 0 14.628571-43.885714 36.571428-131.657143 21.942857-87.771429 7.314286-204.8 7.314286-204.8 0-124.342857-73.142857-241.371429-190.171429-292.571429-14.628571-7.314286-21.942857-21.942857-14.628571-36.571428 7.314286-14.628571 21.942857-21.942857 36.571428-14.628572 131.657143 58.514286 219.428571 190.171429 219.428572 336.457143 0 0 14.628571 124.342857-7.314286 219.428572-21.942857 95.085714-43.885714 138.971429-43.885714 138.971428-7.314286 14.628571-14.628571 21.942857-21.942857 21.942857zM336.457143 277.942857c-7.314286 0-14.628571-7.314286-21.942857-14.628571-7.314286-7.314286 0-21.942857 7.314285-29.257143 80.457143-58.514286 175.542857-80.457143 270.628572-58.514286 14.628571 0 21.942857 14.628571 21.942857 29.257143s-14.628571 21.942857-29.257143 21.942857c-80.457143-14.628571-160.914286 0-226.742857 51.2h-21.942857zM65.828571 694.857143c-14.628571 0-21.942857-7.314286-29.257142-21.942857 0-14.628571 7.314286-29.257143 21.942857-29.257143 0 0 29.257143-7.314286 58.514285-36.571429 21.942857-21.942857 43.885714-58.514286 51.2-73.142857 0-80.457143 29.257143-160.914286 80.457143-226.742857 7.314286-14.628571 29.257143-21.942857 36.571429-7.314286 14.628571 7.314286 14.628571 21.942857 7.314286 36.571429-43.885714 58.514286-73.142857 124.342857-73.142858 197.485714v7.314286c0 7.314286-21.942857 73.142857-65.828571 102.4-43.885714 36.571429-80.457143 51.2-80.457143 51.2H65.828571z" fill="#D72822" /><path d="M124.342857 789.942857c-7.314286 0-14.628571-7.314286-21.942857-14.628571-7.314286-14.628571-7.314286-29.257143 7.314286-36.571429 0 0 95.085714-65.828571 124.342857-87.771428 7.314286-7.314286 29.257143-43.885714 36.571428-80.457143 0-58.514286 36.571429-160.914286 73.142858-204.8 0 0 14.628571-21.942857 51.2-43.885715 29.257143-14.628571 65.828571-29.257143 102.4-29.257142 14.628571-7.314286 29.257143 0 29.257142 14.628571s-7.314286 29.257143-21.942857 29.257143c-29.257143 0-51.2 7.314286-73.142857 21.942857-29.257143 21.942857-43.885714 36.571429-43.885714 36.571429-29.257143 36.571429-65.828571 131.657143-65.828572 182.857142V585.142857c-7.314286 21.942857-29.257143 87.771429-58.514285 117.028572-21.942857 14.628571-117.028571 80.457143-124.342857 87.771428h-14.628572zM702.171429 438.857143c-7.314286 0-14.628571 0-21.942858-7.314286-21.942857-36.571429-58.514286-65.828571-102.4-80.457143-14.628571-7.314286-21.942857-21.942857-14.628571-36.571428 0-14.628571 21.942857-21.942857 36.571429-14.628572 51.2 21.942857 102.4 58.514286 131.657142 95.085715 7.314286 14.628571 7.314286 29.257143-7.314285 36.571428-7.314286 7.314286-14.628571 7.314286-21.942857 7.314286zM724.114286 716.8s-7.314286 0 0 0c-21.942857-7.314286-29.257143-21.942857-29.257143-36.571429 7.314286-21.942857 7.314286-36.571429 14.628571-43.885714 7.314286-29.257143 7.314286-95.085714 7.314286-95.085714 0-14.628571 0-36.571429-7.314286-51.2 0-14.628571 7.314286-29.257143 21.942857-36.571429 14.628571-7.314286 29.257143 7.314286 36.571429 21.942857 7.314286 21.942857 7.314286 43.885714 7.314286 65.828572 0 0-7.314286 73.142857-7.314286 102.4 0 7.314286-7.314286 21.942857-7.314286 43.885714-14.628571 14.628571-21.942857 29.257143-36.571428 29.257143z" fill="#D72822" /><path d="M665.6 928.914286H658.285714c-14.628571-7.314286-21.942857-21.942857-14.628571-36.571429 0 0 21.942857-80.457143 43.885714-153.6 0-14.628571 21.942857-21.942857 36.571429-21.942857s21.942857 14.628571 21.942857 36.571429c-14.628571 73.142857-43.885714 153.6-43.885714 153.6-14.628571 14.628571-21.942857 21.942857-36.571429 21.942857z" fill="#D72822" /><path d="M548.571429 936.228571c-21.942857-7.314286-29.257143-21.942857-29.257143-36.571428l80.457143-329.142857c14.628571-43.885714-14.628571-87.771429-58.514286-102.4-43.885714-7.314286-95.085714 21.942857-102.4 65.828571l-73.142857 212.114286-146.285715 117.028571c-14.628571 14.628571-36.571429 14.628571-43.885714 0-7.314286-14.628571-7.314286-29.257143 7.314286-36.571428l138.971428-109.714286 65.828572-190.171429c0-36.571429 29.257143-73.142857 58.514286-87.771428 29.257143-21.942857 73.142857-29.257143 109.714285-14.628572C629.028571 438.857143 680.228571 512 658.285714 592.457143l-80.457143 329.142857c0 7.314286-14.628571 14.628571-29.257142 14.628571z" fill="#D72822" /><path d="M387.657143 943.542857h-14.628572c-14.628571-7.314286-14.628571-21.942857-7.314285-36.571428l80.457143-146.285715 43.885714-204.8c0-14.628571 14.628571-21.942857 29.257143-21.942857s21.942857 14.628571 21.942857 29.257143l-43.885714 219.428571-87.771429 153.6s-14.628571 7.314286-21.942857 7.314286z" fill="#D72822" /></svg>