<?xml version="1.0" encoding="utf-8"?>
<!-- Uploaded to: SVG Repo, www.svgrepo.com, Generator: SVG Repo Mixer Tools -->
<svg width="800px" height="800px" viewBox="0 0 1024 1024" class="icon"  version="1.1" xmlns="http://www.w3.org/2000/svg"><path d="M292.571429 906.971429H146.285714c-14.628571 0-21.942857-7.314286-21.942857-21.942858V533.942857c0-7.314286 14.628571-21.942857 21.942857-21.942857h146.285715c14.628571 0 21.942857 7.314286 21.942857 21.942857v351.085714c0 7.314286-7.314286 21.942857-21.942857 21.942858z" fill="#F4B1B2" /><path d="M292.571429 928.914286H146.285714c-29.257143 0-43.885714-21.942857-43.885714-43.885715V533.942857c0-21.942857 21.942857-43.885714 43.885714-43.885714h146.285715c29.257143 0 43.885714 21.942857 43.885714 43.885714v351.085714c7.314286 21.942857-14.628571 43.885714-43.885714 43.885715zM153.6 877.714286h131.657143V541.257143H153.6V877.714286zM943.542857 928.914286H804.571429c-29.257143 0-51.2-21.942857-51.2-51.2V394.971429c0-29.257143 21.942857-51.2 51.2-51.2h138.971428c29.257143 0 51.2 21.942857 51.2 51.2V877.714286c0 29.257143-21.942857 51.2-51.2 51.2z m-7.314286-533.942857H804.571429V877.714286l131.657142-7.314286V394.971429z m7.314286 482.742857z" fill="#D72822" /><path d="M621.714286 906.971429H490.057143c-14.628571 0-29.257143-14.628571-29.257143-29.257143V102.4c0-14.628571 14.628571-29.257143 29.257143-29.257143h124.342857c14.628571 0 29.257143 14.628571 29.257143 29.257143V877.714286c7.314286 14.628571-7.314286 29.257143-21.942857 29.257143z" fill="#F4B1B2" /><path d="M621.714286 928.914286H490.057143c-29.257143 0-58.514286-21.942857-58.514286-58.514286V102.4c0-29.257143 21.942857-58.514286 58.514286-58.514286h124.342857c29.257143 0 58.514286 21.942857 58.514286 58.514286V877.714286c0 29.257143-21.942857 51.2-51.2 51.2zM490.057143 102.4V877.714286h131.657143V102.4H490.057143z" fill="#D72822" /></svg>