<?xml version="1.0" encoding="utf-8"?>
<!-- Uploaded to: SVG Repo, www.svgrepo.com, Generator: SVG Repo Mixer Tools -->
<svg width="800px" height="800px" viewBox="0 0 1024 1024" class="icon"  version="1.1" xmlns="http://www.w3.org/2000/svg"><path d="M899.657143 928.914286H175.542857c-51.2 0-95.085714-43.885714-95.085714-95.085715V146.285714c0-51.2 43.885714-95.085714 95.085714-95.085714h716.8c51.2 0 95.085714 43.885714 95.085714 95.085714v687.542857c7.314286 51.2-36.571429 95.085714-87.771428 95.085715zM175.542857 102.4c-21.942857 0-36.571429 14.628571-36.571428 43.885714v687.542857c0 21.942857 21.942857 43.885714 43.885714 43.885715h716.8c21.942857 0 43.885714-21.942857 43.885714-43.885715V146.285714c0-21.942857-21.942857-43.885714-43.885714-43.885714H175.542857z" fill="#D72822" /><path d="M292.571429 73.142857h497.371428v321.828572H292.571429z" fill="#F4B1B2" /><path d="M782.628571 424.228571H292.571429c-14.628571 0-29.257143-14.628571-29.257143-29.257142V73.142857c0-14.628571 14.628571-29.257143 29.257143-29.257143h497.371428c14.628571 0 29.257143 14.628571 29.257143 29.257143v321.828572c-7.314286 14.628571-21.942857 29.257143-36.571429 29.257142zM321.828571 365.714286h438.857143V102.4h-438.857143V365.714286z" fill="#D72822" /><path d="M650.971429 131.657143h65.828571v212.114286h-65.828571z" fill="#D72822" /></svg>