<?xml version="1.0" encoding="utf-8"?>
<!-- Uploaded to: SVG Repo, www.svgrepo.com, Generator: SVG Repo Mixer Tools -->
<svg width="800px" height="800px" viewBox="0 0 1024 1024" class="icon"  version="1.1" xmlns="http://www.w3.org/2000/svg"><path d="M789.942857 899.657143H263.314286c-43.885714 0-80.457143-36.571429-80.457143-80.457143V482.742857c0-43.885714 36.571429-80.457143 80.457143-80.457143h526.628571c43.885714 0 80.457143 36.571429 80.457143 80.457143v336.457143c0 43.885714-36.571429 80.457143-80.457143 80.457143z" fill="#F4B1B2" /><path d="M789.942857 928.914286H263.314286c-58.514286 0-102.4-43.885714-102.4-102.4V482.742857c0-58.514286 43.885714-102.4 102.4-102.4h526.628571c58.514286 0 102.4 43.885714 102.4 102.4v336.457143c7.314286 65.828571-43.885714 109.714286-102.4 109.714286zM263.314286 431.542857c-29.257143 0-51.2 21.942857-51.2 51.2v336.457143c0 29.257143 21.942857 51.2 51.2 51.2h526.628571c29.257143 0 51.2-21.942857 51.2-51.2V482.742857c0-29.257143-21.942857-51.2-51.2-51.2H263.314286z" fill="#D72822" /><path d="M753.371429 424.228571H299.885714V197.485714c0-87.771429 73.142857-168.228571 153.6-168.228571h138.971429c87.771429 0 153.6 73.142857 153.6 168.228571v226.742857z m-394.971429-51.2h343.771429V197.485714c0-58.514286-43.885714-109.714286-102.4-109.714285H460.8c-58.514286 0-102.4 51.2-102.4 109.714285v175.542857z" fill="#D72822" /></svg>